PathFileType	4	(X/Y/Z)	P:\Projects\LMB_grand_challenge_database\project_only\opensim\experimental_data\SixthCompetition/DM_smooth1_new.trc
DataRate	CameraRate	NumFrames	NumMarkers	Units	OrigDataRate	OrigDataStartFrame	OrigNumFrames
120	120	4	68	mm	120	0	370
Frame#	Time	Sternum			Neck			R_Shoulder			L_Shoulder			Xiphoid			Thoracic			R_Asis			L_Asis			R_Psis			L_Psis			Lumbar			R_Elbow			R_ElbowMedial			R_ShoulderAnterior			R_ShoulderPosterior			R_Wrist			R_Radius			R_Ulna			L_Elbow			L_ElbowMedial			L_ShoulderAnterior			L_ShoulderPosterior			L_Wrist			L_Ulna			L_Radius			L_Thigh_Superior			L_Thigh_Inferior			L_Thigh_Lateral			L_Knee_Lateral			L_Knee_Medial			L_Patella			L_Shank_Superior			L_Shank_Inferior			L_Shank_Lateral			L_Ankle_Lateral			L_Ankle_Medial			R_Thigh_Superior			R_Thigh_Inferior			R_Thigh_Lateral			R_Knee_Lateral			R_Knee_Medial			R_Patella			R_Shank_Superior			R_Shank_Inferior			R_Shank_Lateral			R_Ankle_Lateral			RankleMedial			R_Heel			R_Toe			R_Midfoot_Medial			R_Midfoot_Lateral			R_Hindfoot			R_Midfoot_Superior			R_ToeMedial			R_ToeLateral			L_Heel			L_Toe			L_Midfoot_Medial			L_Midfoot_Lateral			L_Hindfoot			L_Midfoot_Superior			L_ToeMedial			L_ToeLateral			Oglobal			Sacral			Xglobal			Yglobal			Zglobal			
		X1	Y1	Z1	X2	Y2	Z2	X3	Y3	Z3	X4	Y4	Z4	X5	Y5	Z5	X6	Y6	Z6	X7	Y7	Z7	X8	Y8	Z8	X9	Y9	Z9	X10	Y10	Z10	X11	Y11	Z11	X12	Y12	Z12	X13	Y13	Z13	X14	Y14	Z14	X15	Y15	Z15	X16	Y16	Z16	X17	Y17	Z17	X18	Y18	Z18	X19	Y19	Z19	X20	Y20	Z20	X21	Y21	Z21	X22	Y22	Z22	X23	Y23	Z23	X24	Y24	Z24	X25	Y25	Z25	X26	Y26	Z26	X27	Y27	Z27	X28	Y28	Z28	X29	Y29	Z29	X30	Y30	Z30	X31	Y31	Z31	X32	Y32	Z32	X33	Y33	Z33	X34	Y34	Z34	X35	Y35	Z35	X36	Y36	Z36	X37	Y37	Z37	X38	Y38	Z38	X39	Y39	Z39	X40	Y40	Z40	X41	Y41	Z41	X42	Y42	Z42	X43	Y43	Z43	X44	Y44	Z44	X45	Y45	Z45	X46	Y46	Z46	X47	Y47	Z47	X48	Y48	Z48	X49	Y49	Z49	X50	Y50	Z50	X51	Y51	Z51	X52	Y52	Z52	X53	Y53	Z53	X54	Y54	Z54	X55	Y55	Z55	X56	Y56	Z56	X57	Y57	Z57	X58	Y58	Z58	X59	Y59	Z59	X60	Y60	Z60	X61	Y61	Z61	X62	Y62	Z62	X63	Y63	Z63	X64	Y64	Z64	X65	Y65	Z65	X66	Y66	Z66	X67	Y67	Z67	X68	Y68	Z68	

1	1.1	-1506.01	1388.02	138.182	-1671.97	1457.67	137.393	-1569.44	1406.6	309.983	-1583.24	1411.27	-38.3523	-1482.62	1216.41	143.776	-1752.56	1273.4	131.603	-1580.55	978.851	275.457	-1552.08	990.088	2.12775	-1772.01	1026.77	150.023	-1765.47	1026.7	72.40989999999999	-1765.22	1075.9	115.935	-1611.45	1090.5	407.44	-0	0	0	-0	0	0	-0	0	0	-1557.61	814.612	394.564	-1552.17	823.327	353.628	-1605.84	821.5940000000001	404.623	-1560.1	1079.5	-148.401	-0	0	0	-0	0	0	-0	0	0	-1436.69	840.8390000000001	-120.275	-1475.85	844.6079999999999	-148.303	-1459.01	854.398	-76.67359999999999	-1618.05	808.8049999999999	-26.2206	-1605.98	590.436	30.2535	-1554.61	680.5069999999999	49.257	-0	0	0	-0	0	0	-1577.52	502.073	93.75190000000001	-1653.27	438.234	26.0365	-1727.8	175.894	35.242	-1660.71	295.909	103.239	-0	0	0	-0	0	0	-1636.66	798.5119999999999	303.996	-1542.13	601.7569999999999	280.333	-1524.95	741.4690000000001	296.929	-0	0	0	-0	0	0	-1434.19	524.799	227.826	-1591.13	436.761	289.312	-1644.8	236.308	273.132	-1539.31	335.969	215.469	-0	0	0	-0	0	0	-1746.11	128.852	207.341	-1464.63	42.3023	253.836	-1534.05	41.903	190.507	-1565.08	40.1411	303.584	-1668.72	67.3981	273.856	-1577.37	140.801	240.463	-1491.5	39.9011	207.19	-1514.48	37.7668	293.724	-1822.11	61.697	89.1982	-1522.72	54.5613	92.44670000000001	-1561.37	35.757	138.201	-1558.5	37.7621	41.0102	-0	0	0	-1655.94	117.581	86.47329999999999	-1561.37	35.757	138.201	-1558.5	37.7621	41.0102	-0	0	0	-1768.74	1026.74	111.217	-200	0	0	-0	0	200	-0	200	0	
2	1.108333	-1497.78	1387.52	138.349	-1663.58	1457.46	137.529	-1561.47	1406.09	310.509	-1574.73	1410.86	-38.1554	-1474.59	1216.05	144.203	-1744.39	1273.24	131.707	-1573.45	976.231	275.784	-1544.13	989.849	2.70052	-1763.93	1027.76	150.35	-1757.61	1025.5	72.6087	-1757.13	1075.75	116.666	-1605.69	1090.41	407.728	-0	0	0	-0	0	0	-0	0	0	-1553.46	814.197	396.194	-1547.51	823.158	355.318	-1601.95	821.425	405.613	-1547.41	1079.3	-147.477	-0	0	0	-0	0	0	-0	0	0	-1420.46	842.542	-118.973	-1459.87	845.487	-146.703	-1442.36	856.192	-74.92910000000001	-1612.12	808.004	-25.1375	-1602.57	589.9400000000001	30.9715	-1550.33	679.853	49.8757	-0	0	0	-0	0	0	-1576.02	501.149	94.6074	-1651.8	438.247	26.4668	-1728.48	175.693	35.6751	-1660.22	296.078	103.938	-0	0	0	-0	0	0	-1628.38	798.535	304.602	-1531.54	602.432	279.509	-1515.81	742.395	296.559	-0	0	0	-0	0	0	-1422.69	527.982	226.972	-1575.74	434.254	289.112	-1620.46	231.443	274.034	-1519.51	335.046	215.689	-0	0	0	-0	0	0	-1717.7	119.293	207.604	-1431.74	45.2523	255.852	-1501.96	41.6921	191.766	-1533.49	38.3613	304.671	-1637.67	61.749	274.083	-1548.78	138.632	241.869	-1458.73	41.3702	209.508	-1481.85	39.0107	296.233	-1822.1	61.776	89.36920000000001	-1522.32	54.4687	93.1277	-1561.43	35.5315	138.199	-1558.62	37.7657	40.9667	-0	0	0	-1655.19	118.171	86.8728	-1561.43	35.5315	138.199	-1558.62	37.7657	40.9667	-0	0	0	-1760.77	1026.63	111.479	-200	0	0	-0	0	200	-0	200	0	
3	1.116667	-1489.52	1387.2	138.702	-1655.2	1457.08	137.754	-1553.4	1405.63	310.893	-1566.12	1410.32	-37.9549	-1466.64	1215.36	144.431	-1736.2	1272.94	131.848	-1565.56	975.475	276.088	-1536.08	989.489	3.02575	-1755.91	1027.48	150.653	-1749.59	1025.18	72.8206	-1749.06	1075.44	117.024	-1599.98	1090.23	408.286	-0	0	0	-0	0	0	-0	0	0	-1549.33	813.712	397.908	-1542.48	822.487	356.94	-1597.97	821.183	406.359	-1534.93	1079.23	-146.553	-0	0	0	-0	0	0	-0	0	0	-1404.59	844.407	-117.714	-1444.22	846.627	-145.138	-1426.14	857.7190000000001	-73.7787	-1606.77	807.232	-24.7598	-1599.41	589.388	31.8529	-1545.93	679.101	50.7713	-0	0	0	-0	0	0	-1574.31	500.527	94.07729999999999	-1650.14	438.181	26.9447	-1729	175.431	36.0937	-1659.42	295.91	104.53	-0	0	0	-0	0	0	-1619.86	798.3920000000001	305.192	-1521.53	602.948	279.012	-1506.41	743.117	296.555	-0	0	0	-0	0	0	-1412	530.672	226.339	-1560.51	431.589	288.859	-1595.84	226.701	274.805	-1499.88	334.629	215.996	-0	0	0	-0	0	0	-1688.03	110.094	209.033	-1399.13	48.5833	257.409	-1469.07	42.0156	193.655	-1500.53	37.7081	306.545	-1605.52	56.5179	275.707	-1520.24	136.967	243.347	-1426.53	42.8592	210.519	-1448.81	40.295	297.885	-1822.08	61.8325	89.4572	-1522.27	54.4653	93.3553	-1561.5	35.4016	138.161	-1558.5	37.7323	41.0142	-0	0	0	-1655.15	118.162	87.2405	-1561.5	35.4016	138.161	-1558.5	37.7323	41.0142	-0	0	0	-1752.75	1026.33	111.737	-200	0	0	-0	0	200	-0	200	0	
4	1.125	-1481.18	1386.64	139.35	-1646.78	1456.64	138.028	-1545.41	1405	311.471	-1557.6	1409.71	-37.5912	-1458.35	1214.88	145.187	-1727.98	1272.55	132.136	-1557.94	974.48	276.518	-1529.17	988.63	3.6161	-1748.48	1027.32	151.736	-1742.51	1024.82	73.6497	-1741.56	1075.14	118.144	-1594.07	1089.86	408.686	-0	0	0	-0	0	0	-0	0	0	-1544.84	813.04	399.366	-1536.72	821.9059999999999	358.942	-1593.73	820.649	407.083	-1522.5	1078.96	-145.487	-0	0	0	-0	0	0	-0	0	0	-1388.51	846.075	-116.193	-1428.64	847.6	-143.428	-1410.23	859.417	-72.6298	-1602.22	807.245	-25.0991	-1596	588.759	32.4441	-1541.74	678.024	52.4705	-0	0	0	-0	0	0	-1573.64	499.206	94.81189999999999	-1648.14	437.736	27.5237	-1727.81	175.847	36.3372	-1658.68	295.731	104.939	-0	0	0	-0	0	0	-1611.61	798.059	305.881	-1511.82	603.258	278.481	-1496.23	743.66	296.175	-0	0	0	-0	0	0	-1401.54	533.303	225.536	-1545.4	428.739	288.76	-1571.52	222.384	275.848	-1480.15	334.302	216.708	-0	0	0	-0	0	0	-1658.04	101.313	210.525	-1366.85	52.3991	258.927	-1436.25	42.9882	195.617	-1467.6	37.7519	308.498	-1573.28	51.6709	277.55	-1491.64	135.773	244.87	-1394.51	45.2484	212.019	-1416.09	42.3612	299.743	-1822.06	61.9209	89.60939999999999	-1522.37	54.3022	93.40519999999999	-1561.55	36.502	136.229	-1558.56	37.7073	40.9796	-0	0	0	-1655.11	118.099	87.5609	-1561.55	36.502	136.229	-1558.56	37.7073	40.9796	-0	0	0	-1745.49	1026.07	112.693	-200	0	0	-0	0	200	-0	200	0	
